<svg xmlns="http://www.w3.org/2000/svg" xmlns:xlink="http://www.w3.org/1999/xlink" viewBox="0 0 17 12" version="1.1"><!-- Generator: Sketch 45.2 (43514) - http://www.bohemiancoding.com/sketch --><title>Chine</title><desc>Created with Sketch.</desc><defs/><g id="Symbols" stroke="none" stroke-width="1" fill="none" fill-rule="evenodd"><g id="Header-HOME-ETU-2" transform="translate(-414.000000, -80.000000)"><g id="Chine" transform="translate(414.000000, 80.000000)"><rect id="Rectangle-2" fill="#F95465" x="1" y="1" width="15.0214752" height="10" rx="1"/><g id="Group-3" transform="translate(2.000000, 2.000000)" fill="#FEBC46"><polygon id="Star" points="2.36333505 4.01620087 1.0808945 4.69041977 1.32581885 3.26240123 0.288302649 2.25107288 1.72211477 2.04272779 2.36333505 0.743473599 3.00455532 2.04272779 4.43836745 2.25107288 3.40085125 3.26240123 3.6457756 4.69041977"/><polygon id="Star" points="5.28694922 1.15020045 4.85946904 1.37494008 4.94111049 0.898933899 4.59527176 0.56182445 5.07320913 0.492376085 5.28694922 0.0592913555 5.50068932 0.492376085 5.97862669 0.56182445 5.63278796 0.898933899 5.71442941 1.37494008"/><polygon id="Star" points="6.72730693 2.3950932 6.29982675 2.61983283 6.3814682 2.14382665 6.03562947 1.80671721 6.51356684 1.73726884 6.72730693 1.30418411 6.94104702 1.73726884 7.4189844 1.80671721 7.07314567 2.14382665 7.15478712 2.61983283"/><polygon id="Star" points="6.74115916 3.88506009 6.31367897 4.10979972 6.39532042 3.63379354 6.04948169 3.29668409 6.52741907 3.22723573 6.74115916 2.794151 6.95489925 3.22723573 7.43283662 3.29668409 7.08699789 3.63379354 7.16863934 4.10979972"/><polygon id="Star" points="5.29567277 4.90275022 4.86819259 5.12748985 4.94983404 4.65148367 4.6039953 4.31437422 5.08193268 4.24492585 5.29567277 3.81184112 5.50941286 4.24492585 5.98735024 4.31437422 5.6415115 4.65148367 5.72315295 5.12748985"/></g><path d="M2.00539662,0 L15,0 C16.1045695,-1.18396092e-15 17,0.8954305 17,2 L17,10 C17,11.1045695 16.1045695,12 15,12 L2.00539662,12 C0.900827117,12 0.00539661619,11.1045695 0.00539661619,10 L0.00539661619,2 L0.00539661619,2 C0.00539661619,0.8954305 0.900827117,2.02906125e-16 2.00539662,0 L2.00539662,0 Z M2,1 L2,1 C1.44771525,1 1,1.44771525 1,2 L1,10 C1,10.5522847 1.44771525,11 2,11 L2,11 L15.0214752,11 C15.57376,11 16.0214752,10.5522847 16.0214752,10 L16.0214752,2 C16.0214752,1.44771525 15.57376,1 15.0214752,1 L2,1 Z" id="Combined-Shape" fill="#FFFFFF"/></g></g></g></svg>