<svg xmlns="http://www.w3.org/2000/svg" xmlns:xlink="http://www.w3.org/1999/xlink" viewBox="0 0 17 12" version="1.1"><!-- Generator: Sketch 45.2 (43514) - http://www.bohemiancoding.com/sketch --><title>Angleterre</title><desc>Created with Sketch.</desc><defs><rect id="path-1" x="-0.613072224" y="5.45277724" width="18.2511039" height="1"/><rect id="path-2" x="-0.616482947" y="5.54625857" width="18.2959961" height="1"/></defs><g id="Symbols" stroke="none" stroke-width="1" fill="none" fill-rule="evenodd"><g id="Header-HOME-ETU-2" transform="translate(-414.000000, -54.000000)"><g id="Angleterre" transform="translate(414.000000, 54.000000)"><rect id="Rectangle-2" fill="#4156A8" x="1" y="1" width="15.0214752" height="10" rx="1"/><g id="Rectangle-3" transform="translate(8.512480, 5.952777) rotate(32.000000) translate(-8.512480, -5.952777) "><use fill="#FFFFFF" fill-rule="evenodd" xlink:href="#path-1"/><rect stroke="#FFFFFF" stroke-width="0.3" x="-0.763072224" y="5.30277724" width="18.5511039" height="1.3"/></g><g id="Rectangle-3" transform="translate(8.531515, 6.046259) scale(-1, 1) rotate(32.000000) translate(-8.531515, -6.046259) "><use fill="#FFFFFF" fill-rule="evenodd" xlink:href="#path-2"/><rect stroke="#FFFFFF" stroke-width="0.3" x="-0.766482947" y="5.39625857" width="18.5959961" height="1.3"/></g><rect id="Rectangle-3" fill="#F95465" transform="translate(8.596798, 6.005465) rotate(32.000000) translate(-8.596798, -6.005465) " x="-0.628180255" y="5.50546521" width="18.4499568" height="1"/><rect id="Rectangle-3" fill="#F95465" transform="translate(8.596798, 6.005465) scale(-1, 1) rotate(32.000000) translate(-8.596798, -6.005465) " x="-0.628180255" y="5.50546521" width="18.4499568" height="1"/><path d="M9.50641702,7.00439452 L16.3671418,7.00439452 L16.3671418,5.00439452 L9.50641702,5.00439452 L9.50641702,0.654293037 L7.50641702,0.654293037 L7.50641702,5.00439452 L0.356685358,5.00439452 L0.356685358,7.00439452 L7.50641702,7.00439452 L7.50641702,11.3667717 L9.50641702,11.3667717 L9.50641702,7.00439452 Z" id="Combined-Shape" stroke="#FFFFFF" stroke-width="0.4" fill="#FF5365"/><path d="M2.00539662,0 L15,0 C16.1045695,-1.18396092e-15 17,0.8954305 17,2 L17,10 C17,11.1045695 16.1045695,12 15,12 L2.00539662,12 C0.900827117,12 0.00539661619,11.1045695 0.00539661619,10 L0.00539661619,2 L0.00539661619,2 C0.00539661619,0.8954305 0.900827117,2.02906125e-16 2.00539662,0 L2.00539662,0 Z M2,1 L2,1 C1.44771525,1 1,1.44771525 1,2 L1,10 C1,10.5522847 1.44771525,11 2,11 L2,11 L15.0214752,11 C15.57376,11 16.0214752,10.5522847 16.0214752,10 L16.0214752,2 C16.0214752,1.44771525 15.57376,1 15.0214752,1 L2,1 Z" id="Combined-Shape" fill="#FFFFFF"/></g></g></g></svg>