<svg xmlns="http://www.w3.org/2000/svg" xmlns:xlink="http://www.w3.org/1999/xlink" viewBox="0 0 17 12" version="1.1"><!-- Generator: Sketch 45.2 (43514) - http://www.bohemiancoding.com/sketch --><title>France</title><desc>Created with Sketch.</desc><defs/><g id="Symbols" stroke="none" stroke-width="1" fill="none" fill-rule="evenodd"><g id="Barre-top-etud-2" transform="translate(-436.000000, -15.000000)"><g id="France" transform="translate(436.000000, 15.000000)"><rect id="Rectangle" fill="#FFFFFF" x="0.00539661619" y="0" width="16.9946034" height="12" rx="2"/><path d="M2,1 L5.98307447,1 L5.98307447,11 L2,11 L2,11 C1.44771525,11 1,10.5522847 1,10 L1,2 L1,2 C1,1.44771525 1.44771525,1 2,1 Z" id="Rectangle-2" fill="#002EBA"/><rect id="Rectangle-2" fill="#FFFFFF" x="6" y="1" width="4.98307447" height="10"/><path d="M11,1 L14.9830745,1 L14.9830745,1 C15.5353592,1 15.9830745,1.44771525 15.9830745,2 L15.9830745,10 L15.9830745,10 C15.9830745,10.5522847 15.5353592,11 14.9830745,11 L11,11 L11,1 Z" id="Rectangle-2" fill="#FF4553"/></g></g></g></svg>