<svg aria-hidden="" focusable="1" xmlns="http://www.w3.org/2000/svg" viewBox="0 0 5.12 7.97"><defs><style>.cls-1{fill:#fff;}</style></defs><g id="Calque_2" data-name="Calque 2"><g id="Calque_1-2" data-name="Calque 1"><path style="fill:#b71b54!important" class="cls-1" d="M3.45,5A1.19,1.19,0,0,1,3,4V1H2.17V4a1.18,1.18,0,0,1-.5,1A1.74,1.74,0,0,0,1,6.4V8H0V6.4A2.71,2.71,0,0,1,1.06,4.24.25.25,0,0,0,1.18,4V1.82A.35.35,0,0,1,1,1.54V1A.31.31,0,0,1,1.18.73v0A.7.7,0,0,1,1.89,0H3.23a.71.71,0,0,1,.71.7v0A.3.3,0,0,1,4.11,1v.51a.37.37,0,0,1-.17.29V4a.37.37,0,0,0,0,.14s0,0,.09.09A2.71,2.71,0,0,1,5.12,6.4V8h-1V6.4A1.73,1.73,0,0,0,3.45,5Z"/></g></g></svg>