<svg aria-hidden="" focusable="1" xmlns="http://www.w3.org/2000/svg" viewBox="0 0 9.78 8.38"><defs><style>.cls-1{fill:#fff;}</style></defs><g id="Calque_2" data-name="Calque 2"><g id="Calque_1-2" data-name="Calque 1"><path style="fill:#00a298!important" class="cls-1" d="M.2,2.26l.08-.17H.46a1.68,1.68,0,0,1,.63.12,1.91,1.91,0,0,1,.06-1.06A1.77,1.77,0,0,1,2.47,0l.18,0,.11.15A1.79,1.79,0,0,1,3,1.85a1.71,1.71,0,0,1-1,1,.08.08,0,0,0,0,0,1.77,1.77,0,0,1,.11,1.71L2,4.8H2a1.79,1.79,0,0,1,.76,1.45V6.4h.12a1.77,1.77,0,0,1,1.58,1l.08.17-.12.14a1.78,1.78,0,0,1-3-.35L1.31,7.2l.12-.15a1.69,1.69,0,0,1,.43-.37H1.78A1.8,1.8,0,0,1,0,4.91V4.73l.16-.08A1.65,1.65,0,0,1,.8,4.48,1.59,1.59,0,0,1,.31,4,1.76,1.76,0,0,1,.2,2.26ZM.94,5.05a1.33,1.33,0,0,0-.34,0,1.21,1.21,0,0,0,1.18,1,1.07,1.07,0,0,0,.35-.06A1.22,1.22,0,0,0,.94,5.05ZM.8,3.66a1.18,1.18,0,0,0,.82.55,1.2,1.2,0,0,0-1-1.52A1.15,1.15,0,0,0,.8,3.66Zm1-1.32a1.22,1.22,0,0,0,.71-.7,1.24,1.24,0,0,0-.06-1,1.17,1.17,0,0,0-.7.69A1.22,1.22,0,0,0,1.75,2.34ZM3,7.8a1.17,1.17,0,0,0,.79-.31,1.21,1.21,0,0,0-1-.51,1.15,1.15,0,0,0-.79.3A1.18,1.18,0,0,0,3,7.8Zm5.35-.7.11.14-.09.17a1.79,1.79,0,0,1-3,.27l-.11-.14.09-.17a1.76,1.76,0,0,1,1.56-1h.13V6.25A1.8,1.8,0,0,1,7.82,4.8h0L7.7,4.63a1.77,1.77,0,0,1,.11-1.71.08.08,0,0,0,0,0,1.71,1.71,0,0,1-1-1A1.79,1.79,0,0,1,7,.15L7.13,0l.18,0A1.74,1.74,0,0,1,8.62,1.15a1.75,1.75,0,0,1,.06,1.06,1.73,1.73,0,0,1,.64-.12H9.5l.08.17A1.76,1.76,0,0,1,9.47,4,1.59,1.59,0,0,1,9,4.48a1.84,1.84,0,0,1,.64.17l.16.08v.18A1.8,1.8,0,0,1,8,6.69h-.1A1.71,1.71,0,0,1,8.36,7.1Zm-1.57.7a1.21,1.21,0,0,0,1-.49A1.23,1.23,0,0,0,6.94,7a1.21,1.21,0,0,0-1,.49A1.2,1.2,0,0,0,6.79,7.8ZM8.08,1.35a1.17,1.17,0,0,0-.7-.69,1.2,1.2,0,0,0-.06,1,1.24,1.24,0,0,0,.7.7A1.22,1.22,0,0,0,8.08,1.35Zm.76,3.7a1.22,1.22,0,0,0-1.19,1A1,1,0,0,0,8,6.11a1.21,1.21,0,0,0,1.19-1A1.33,1.33,0,0,0,8.84,5.05Zm-.68-.84A1.2,1.2,0,0,0,9,3.66a1.15,1.15,0,0,0,.14-1,1.2,1.2,0,0,0-1,1.52Z"/></g></g></svg>