<svg aria-hidden="" focusable="1" version="1.1" id="Calque_1" x="0px" y="0px" viewBox="0 0 200 200" style="enable-background:new 0 0 200 200;" xml:space="preserve" sodipodi:docname="Artssc.svg" xmlns:inkscape="http://www.inkscape.org/namespaces/inkscape" xmlns:sodipodi="http://sodipodi.sourceforge.net/DTD/sodipodi-0.dtd" xmlns="http://www.w3.org/2000/svg" xmlns:svg="http://www.w3.org/2000/svg"><defs id="defs11"/><sodipodi:namedview id="namedview9" pagecolor="#ffffff" bordercolor="#000000" borderopacity="0.25" inkscape:showpageshadow="2" inkscape:pageopacity="0.0" inkscape:pagecheckerboard="0" inkscape:deskcolor="#d1d1d1"/><style type="text/css" id="style2">
	.st0{fill:#FFFFFF;}
</style><g id="g6"><path style="fill:#FFE400!important" class="st0" d="M131.6,200l-0.3-0.6c-4.7-14.6-16.9-22-31.8-22c-17.4,0-27.4,11.2-30.9,22l-0.1,0.6H40.9   C67.2,149.9,89.7,91.3,89.7,7.1V0h20.6v7.5c0,83.8,22.6,142.4,48.8,192.5H131.6z M99.9,154.2c4.1,0,9.5,0.6,16,4.3   c-6.1-13.2-12.8-36.6-16-53.2c-3.1,16.6-9.8,40-15.9,53.2C90.6,154.7,96,154.2,99.9,154.2z" id="path4"/></g></svg>