<svg aria-hidden="" focusable="1" xmlns="http://www.w3.org/2000/svg" viewBox="0 0 8.27 8.27"><defs><style>.cls-1{fill:#fff;}</style></defs><g id="Calque_2" data-name="Calque 2"><g id="Calque_1-2" data-name="Calque 1"><path style="fill:#dd1138!important" class="cls-1" d="M0,4.13A4.14,4.14,0,1,1,4.14,8.27,4.14,4.14,0,0,1,0,4.13ZM1,5.25H2.5a9.61,9.61,0,0,1-.07-1.12A10.52,10.52,0,0,1,2.5,3H1A3.51,3.51,0,0,0,.77,4.13,3.22,3.22,0,0,0,1,5.25Zm2.19,2.1a4.36,4.36,0,0,1-.58-1.58H1.2A3.36,3.36,0,0,0,3.16,7.35ZM2.58,2.44A4.27,4.27,0,0,1,3.16.92,3.38,3.38,0,0,0,1.23,2.44ZM5.24,3H3A8.49,8.49,0,0,0,3,4.13,9.75,9.75,0,0,0,3,5.25H5.24a7.87,7.87,0,0,0,.08-1.12A8.49,8.49,0,0,0,5.24,3ZM3.11,5.77c.2,1,.57,1.62.93,1.72h.19c.36-.1.73-.76.93-1.72Zm2-3.33C4.94,1.51,4.58.87,4.23.78H4c-.35.09-.71.73-.92,1.66Zm1.9,0A3.38,3.38,0,0,0,5.11.92a4.28,4.28,0,0,1,.57,1.52ZM5.7,5.77a4.55,4.55,0,0,1-.59,1.58,3.36,3.36,0,0,0,2-1.58ZM5.77,3a10.52,10.52,0,0,1,.07,1.17,9.61,9.61,0,0,1-.07,1.12H7.3a3.46,3.46,0,0,0,.19-1.12A3.28,3.28,0,0,0,7.28,3Z"/></g></g></svg>