<svg aria-hidden="" focusable="1" id="Calque_1" xmlns="http://www.w3.org/2000/svg" viewBox="0 0 97.3448 91.1033"><defs><style>.cls-1{fill:#fff;}</style></defs><path style="fill:#45BABD!important" class="cls-1" d="m96.258,19.6426c.7014.257,1.1457.9584,1.0804,1.6554-.061.7624-.5707,1.3984-1.272,1.59l-11.4396,3.3064v29.4965c0,20.9146-15.0075,35.4124-35.9221,35.4124-20.3439,0-36.0484-13.8617-36.0484-35.4124v-29.4965l-11.4396-3.3064c-.7014-.1917-1.2111-.8277-1.2111-1.59-.061-.697.3834-1.3984,1.0194-1.6554L48.0077.1263c.1873-.061.4443-.1263.6317-.1263.257,0,.4487.0653.7014.1263l46.9174,19.5162Zm-31.8489,7.8849c3.8771,0,7.5625,1.0194,10.869,2.8621v-7.6932l-26.6388-10.869-26.5081,10.869v7.8196c3.3064-1.9081,7.1182-2.9884,11.126-2.9884,5.9115,0,11.505,2.4134,15.5738,6.5475,4.0078-4.1341,9.6623-6.5475,15.5781-6.5475Zm-15.5781,17.0375c-1.4594,0-2.7314-.8233-3.4328-2.0344-2.4787-4.3868-7.1182-7.1182-12.141-7.1182-2.7967,0-5.4672.7624-7.6932,2.2871v17.9262c0,14.0534,8.5166,23.9684,23.1407,23.9684,14.1144,0,23.0143-9.7233,23.0143-23.7767v-18.3052c-2.1607-1.4027-4.7048-2.0997-7.3099-2.0997-5.0228,0-9.6666,2.7314-12.1454,7.1182-.697,1.2111-2.0344,2.0344-3.4328,2.0344Z"/></svg>