<svg aria-hidden="" focusable="1" xmlns="http://www.w3.org/2000/svg" viewBox="0 0 9.04 8.26"><defs><style>.cls-1{fill:#fff;}</style></defs><g id="Calque_2" data-name="Calque 2"><g id="Calque_1-2" data-name="Calque 1"><path style="fill:#eb5d40!important" class="cls-1" d="M5.29,3.2A2,2,0,0,0,3.22,1,2,2,0,0,0,1.15,3.22v4.9H0V3.21A3.1,3.1,0,0,1,3.22,0,3.09,3.09,0,0,1,6.43,3.21V5.68H5.29ZM7.89,5V.15H9v4.9A3.1,3.1,0,0,1,5.82,8.26,3.09,3.09,0,0,1,2.6,5.05V2.56H3.76v2.5A2,2,0,0,0,5.82,7.24,2,2,0,0,0,7.89,5Z"/></g></g></svg>