<svg aria-hidden="" focusable="1" xmlns="http://www.w3.org/2000/svg" viewBox="0 0 8.26 8.26"><defs><style>.cls-1{fill:#fff;}</style></defs><g id="Calque_2" data-name="Calque 2"><g id="Calque_1-2" data-name="Calque 1"><path style="fill:#008bd2!important" class="cls-1" d="M8.26,4.13A4.13,4.13,0,1,1,4.13,0,4.14,4.14,0,0,1,8.26,4.13ZM1,4.13A3.1,3.1,0,1,0,4.13,1,3.09,3.09,0,0,0,1,4.13Zm5.33,0A2.23,2.23,0,1,1,4.13,1.9,2.23,2.23,0,0,1,6.36,4.13ZM4.13,2.64A1.49,1.49,0,1,0,5.62,4.13,1.48,1.48,0,0,0,4.13,2.64Zm0,.88a.61.61,0,0,1,.6.61.6.6,0,0,1-1.2,0A.61.61,0,0,1,4.13,3.52Z"/></g></g></svg>